<svg xmlns="http://www.w3.org/2000/svg" xmlns:xlink="http://www.w3.org/1999/xlink" version="1.1" width="256" height="256" viewBox="0 0 256 256" xml:space="preserve">
<desc>Created with Fabric.js 1.7.22</desc>
<defs>
</defs>
<g transform="translate(128 128) scale(0.72 0.72)" style="">
	<g style="stroke: none; stroke-width: 0; stroke-dasharray: none; stroke-linecap: butt; stroke-linejoin: miter; stroke-miterlimit: 10; fill: none; fill-rule: nonzero; opacity: 1;" transform="translate(-175.05 -175.05000000000004) scale(3.89 3.89)" >
	<path d="M 90 48.21 c 0 -24.813 -20.187 -45 -45 -45 s -45 20.187 -45 45 v 1.484 h 43.516 V 74.83 c 0 4.959 -4.034 8.992 -8.993 8.992 s -8.993 -4.033 -8.993 -8.992 c 0 -0.819 -0.664 -1.484 -1.484 -1.484 s -1.484 0.664 -1.484 1.484 c 0 6.594 5.365 11.959 11.96 11.959 s 11.96 -5.365 11.96 -11.959 V 49.694 H 90 V 48.21 z M 2.993 46.727 C 3.777 24.234 22.319 6.178 45 6.178 s 41.223 18.056 42.007 40.549 H 2.993 z" style="stroke: none; stroke-width: 1; stroke-dasharray: none; stroke-linecap: butt; stroke-linejoin: miter; stroke-miterlimit: 10; fill: rgb(255,255,255); fill-rule: nonzero; opacity: 1;" transform=" matrix(1 0 0 1 0 0) " stroke-linecap="round" />
</g>
</g>
</svg>